<svg width="120" height="120" viewBox="0 0 120 120" fill="none" xmlns="http://www.w3.org/2000/svg">
<path d="M88.297 58.2086C87.8479 51.0087 84.6712 44.2508 79.4138 39.3112C74.1564 34.3715 67.2139 31.6217 60 31.6217C52.7861 31.6217 45.8436 34.3715 40.5862 39.3112C35.3288 44.2508 32.1521 51.0087 31.703 58.2086C31.7155 58.8084 31.7653 59.4069 31.852 60.0006C32.4294 64.817 34.2565 69.3986 37.152 73.2906C39.7791 76.8834 43.2182 79.8045 47.1888 81.8155C51.1594 83.8266 55.5491 84.8706 60 84.8626C53.7185 84.8586 47.6712 82.4777 43.073 78.1982C38.4748 73.9187 35.6664 68.0576 35.212 61.7926C35.1498 61.1974 35.1247 60.5989 35.137 60.0006C35.1247 59.4023 35.1498 58.8038 35.212 58.2086C35.6662 51.9433 38.4745 46.0821 43.0727 41.8024C47.6709 37.5226 53.7183 35.1416 60 35.1376C64.4508 35.1298 68.8404 36.1741 72.8108 38.1853C76.7813 40.1965 80.2201 43.1177 82.847 46.7106C85.7424 50.6026 87.5696 55.1842 88.147 60.0006C88.2305 60.5695 88.2802 61.1428 88.296 61.7176C88.296 61.1176 88.371 60.5226 88.371 59.9256C88.3817 59.3522 88.3577 58.7788 88.297 58.2086Z" fill="#E63E3A"/>
<path d="M31.704 61.7914C32.1531 68.9912 35.3298 75.7492 40.5872 80.6888C45.8446 85.6284 52.7871 88.3782 60.001 88.3782C67.2148 88.3782 74.1574 85.6284 79.4148 80.6888C84.6721 75.7492 87.8489 68.9912 88.298 61.7914C88.2854 61.1915 88.2357 60.5931 88.149 59.9994C87.5716 55.183 85.7445 50.6013 82.849 46.7094C80.2218 43.1164 76.7826 40.1952 72.8118 38.1842C68.8409 36.1732 64.451 35.1292 60 35.1374C66.2817 35.1414 72.3291 37.5225 76.9273 41.8022C81.5255 46.0819 84.3338 51.9431 84.788 58.2084C84.8876 59.401 84.8876 60.5998 84.788 61.7924C84.3462 68.0621 81.5417 73.9306 76.9407 78.2127C72.3398 82.4948 66.2853 84.8713 60 84.8624C55.5494 84.87 51.16 83.8256 47.1897 81.8144C43.2195 79.8032 39.7808 76.8821 37.154 73.2894C34.2586 69.3974 32.4314 64.8158 31.854 59.9994C31.7705 59.4305 31.7208 58.8571 31.705 58.2824C31.704 58.8804 31.629 59.4774 31.629 60.0704C31.6183 60.6437 31.6433 61.2172 31.704 61.7874" fill="#E63E3A"/>
<path d="M56.493 37.0787V44.9167H61.942C62.2569 44.9209 62.5694 44.862 62.8612 44.7434C63.1529 44.6248 63.4179 44.449 63.6406 44.2263C63.8633 44.0036 64.0391 43.7386 64.1577 43.4469C64.2763 43.1551 64.3352 42.8426 64.3311 42.5277C64.3264 42.2064 64.2581 41.8892 64.13 41.5945C64.002 41.2998 63.8167 41.0334 63.5851 40.8107C63.9037 40.3975 64.1103 39.9091 64.185 39.3927C64.1819 38.78 63.9371 38.1933 63.5038 37.76C63.0705 37.3267 62.4838 37.0819 61.871 37.0787H56.493ZM58.284 38.7207H61.5681C61.7463 38.7207 61.9172 38.7915 62.0432 38.9176C62.1692 39.0436 62.2401 39.2145 62.2401 39.3927C62.2401 39.571 62.1692 39.7419 62.0432 39.8679C61.9172 39.9939 61.7463 40.0647 61.5681 40.0647H58.2831L58.284 38.7207ZM58.284 41.7067H61.643C61.841 41.7067 62.0309 41.7854 62.1709 41.9254C62.3109 42.0654 62.3896 42.2552 62.3896 42.4532C62.3896 42.6512 62.3109 42.8411 62.1709 42.9811C62.0309 43.1211 61.841 43.1997 61.643 43.1997H58.2831L58.284 41.7067Z" fill="#E63E3A"/>
<path d="M59.104 46.4108L55.222 54.2488H57.238L57.838 52.9048H62.238L62.838 54.2488H64.853L60.891 46.4108H59.104ZM60.004 48.4268L61.348 51.2638H58.661L60.004 48.4268Z" fill="#E63E3A"/>
<path d="M62.687 55.9705H64.926L60.97 61.0465V63.8035H59.104V61.0415L55.148 55.9655H57.387L60.074 59.5485L62.687 55.9705Z" fill="#E63E3A"/>
<path d="M75.535 55.9675V63.8025H77.401V60.8165H78.819L81.059 63.8025H83.298L80.984 60.7425C81.5377 60.5701 82.0121 60.2066 82.3224 59.7167C82.6327 59.2268 82.7587 58.6426 82.6779 58.0684C82.5972 57.4942 82.3149 56.9674 81.8814 56.5822C81.448 56.1969 80.8918 55.9783 80.312 55.9655L75.535 55.9675ZM77.476 57.6095H80.163C80.3569 57.6222 80.5395 57.705 80.6768 57.8424C80.814 57.9799 80.8966 58.1626 80.909 58.3564C80.9085 58.5541 80.8297 58.7436 80.6899 58.8834C80.5502 59.0232 80.3607 59.1019 80.163 59.1024H77.476V57.6095Z" fill="#E63E3A"/>
<path d="M37.377 55.9694V63.8034H42.826C43.1401 63.8069 43.4518 63.7475 43.7427 63.6289C44.0335 63.5103 44.2978 63.3347 44.5199 63.1125C44.742 62.8903 44.9174 62.626 45.0359 62.3351C45.1544 62.0442 45.2136 61.7325 45.21 61.4184C45.2054 61.0971 45.137 60.7799 45.009 60.4851C44.8809 60.1904 44.6957 59.924 44.464 59.7014C44.7826 59.2882 44.9893 58.7998 45.064 58.2834C45.0609 57.6706 44.8161 57.0839 44.3828 56.6506C43.9495 56.2173 43.3628 55.9725 42.75 55.9694H37.377ZM39.168 57.6114H42.452C42.6302 57.6114 42.8012 57.6822 42.9272 57.8082C43.0532 57.9342 43.124 58.1052 43.124 58.2834C43.124 58.4616 43.0532 58.6325 42.9272 58.7585C42.8012 58.8846 42.6302 58.9554 42.452 58.9554H39.168V57.6114ZM39.168 60.5974H42.527C42.7203 60.6045 42.9032 60.6862 43.0375 60.8254C43.1717 60.9646 43.2467 61.1505 43.2467 61.3439C43.2467 61.5373 43.1717 61.7231 43.0375 61.8623C42.9032 62.0016 42.7203 62.0833 42.527 62.0904H39.168V60.5974Z" fill="#E63E3A"/>
<path d="M50.219 55.9694L46.337 63.8074H48.353L48.953 62.4634H53.353L53.953 63.8074H55.97L52.014 55.9694H50.219ZM51.119 57.9854L52.463 60.8224H49.77L51.119 57.9854Z" fill="#E63E3A"/>
<path d="M73.067 55.9705V57.6555H67.842V58.9745H72.918V60.6595H67.842V62.1245H73.067V63.8035H65.976V55.9655L73.067 55.9705Z" fill="#E63E3A"/>
<path d="M56.418 75.2322V83.0652H58.284V80.0792H59.702L61.941 83.0652H64.18L61.866 80.0042C62.4197 79.8319 62.894 79.4683 63.2043 78.9785C63.5147 78.4886 63.6407 77.9044 63.5599 77.3301C63.4791 76.7559 63.1968 76.2291 62.7634 75.8439C62.33 75.4586 61.7737 75.24 61.194 75.2272L56.418 75.2322ZM58.359 76.8742H61.046C61.2397 76.8869 61.4221 76.9695 61.5594 77.1068C61.6966 77.244 61.7793 77.4265 61.792 77.6202C61.7915 77.8179 61.7127 78.0073 61.5729 78.1471C61.4331 78.2869 61.2437 78.3657 61.046 78.3662H58.359V76.8742Z" fill="#E63E3A"/>
<path d="M63.584 65.5084V67.1934H58.359V68.5124H63.435V70.1974H58.359V71.6624H63.584V73.3474H56.492V65.5094L63.584 65.5084Z" fill="#E63E3A"/>
</svg>
