<svg width="120" height="120" viewBox="0 0 120 120" fill="none" xmlns="http://www.w3.org/2000/svg">
<path d="M59.9974 88.3715C59.7154 88.3715 59.4344 88.3665 59.1544 88.3585L64.9544 72.4235H72.9334C73.6706 72.3877 74.3826 72.1441 74.9873 71.7209C75.5919 71.2976 76.0645 70.7119 76.3504 70.0315L82.6414 52.7535C83.6704 49.9245 82.0504 47.6105 79.0414 47.6105H67.9684L58.6764 73.1325L53.4114 87.6005C47.2996 86.1395 41.8455 82.6912 37.9047 77.7964C33.9639 72.9016 31.7593 66.8372 31.6365 60.5544C31.5138 54.2716 33.4799 48.1257 37.2265 43.0808C40.9731 38.0358 46.2883 34.3771 52.3384 32.6785L46.9044 47.6095L37.8704 72.4225H43.8834L51.5654 51.3385H56.0844L48.4024 72.4235H54.4134L61.5714 52.7515C62.6014 49.9225 60.9804 47.6085 57.9714 47.6085H52.9184L58.7224 31.6585C59.1454 31.6395 59.5704 31.6285 59.9974 31.6285C67.522 31.6285 74.7384 34.6176 80.0591 39.9383C85.3798 45.259 88.3689 52.4754 88.3689 60C88.3689 67.5246 85.3798 74.741 80.0591 80.0617C74.7384 85.3823 67.522 88.3715 59.9974 88.3715ZM77.1644 51.3225H72.6464L66.3194 68.6785H70.8374L77.1644 51.3225Z" fill="#E63E3A"/>
</svg>
