<svg width="160" height="120" viewBox="0 0 160 120" fill="none" xmlns="http://www.w3.org/2000/svg">
<path d="M78.8988 50.406C78.4097 50.1348 77.858 49.9969 77.2988 50.006C75.6155 50.006 74.7738 51.0683 74.7738 53.193V55.511H78.2988V57.55H74.7758V70.547H72.3668V57.554H69.8128V55.515H72.3668V53.078C72.3365 52.4026 72.4402 51.7279 72.6721 51.0928C72.904 50.4577 73.2594 49.8749 73.7178 49.378C74.1592 48.9146 74.6934 48.5496 75.2855 48.3066C75.8775 48.0636 76.5142 47.9483 77.1538 47.968C77.7477 47.9451 78.3406 48.0354 78.9008 48.234V50.406H78.8988ZM83.3388 50.127C83.3444 50.3366 83.3054 50.545 83.2243 50.7385C83.1433 50.9319 83.0221 51.1059 82.8688 51.249C82.5679 51.5333 82.1703 51.693 81.7563 51.6958C81.3423 51.6985 80.9426 51.5442 80.6378 51.264C80.4861 51.117 80.3672 50.9397 80.2888 50.7436C80.2104 50.5475 80.1743 50.337 80.1828 50.126C80.1803 49.9231 80.2186 49.7219 80.2954 49.5341C80.3722 49.3463 80.4859 49.1759 80.6298 49.033C80.7744 48.8818 80.949 48.7625 81.1424 48.6827C81.3358 48.603 81.5437 48.5646 81.7528 48.57C81.9625 48.5643 82.171 48.6018 82.3656 48.6801C82.5601 48.7583 82.7365 48.8757 82.8838 49.025C83.0307 49.1676 83.1469 49.3387 83.2251 49.5279C83.3034 49.7171 83.3421 49.9203 83.3388 50.125M82.9298 70.541H80.5208V55.513H82.9288L82.9298 70.541ZM96.6698 69.853C95.4188 70.5804 93.9905 70.9463 92.5438 70.91C91.2509 70.9292 89.9762 70.6026 88.8518 69.964C87.7625 69.3341 86.8781 68.4032 86.3048 67.283C85.6867 66.0811 85.3745 64.7453 85.3958 63.394C85.2917 61.1939 86.0588 59.0414 87.5308 57.403C88.2654 56.6454 89.1522 56.0521 90.1329 55.6624C91.1135 55.2727 92.1656 55.0953 93.2198 55.142C94.4239 55.1178 95.6166 55.3796 96.6998 55.906V58.372C95.6576 57.6165 94.4051 57.206 93.1178 57.198C92.4011 57.1754 91.6884 57.3133 91.0318 57.6016C90.3752 57.8898 89.7913 58.3211 89.3228 58.864C88.3157 60.068 87.7943 61.6047 87.8608 63.173C87.7777 64.6842 88.2741 66.1701 89.2488 67.328C89.721 67.8373 90.2985 68.2375 90.9411 68.5009C91.5837 68.7643 92.276 68.8844 92.9698 68.853C94.3121 68.8433 95.6133 68.3889 96.6698 67.561V69.853ZM111.462 63.629H100.849C100.789 65.0467 101.27 66.4343 102.193 67.512C102.659 67.9716 103.217 68.3285 103.83 68.5596C104.443 68.7907 105.097 68.891 105.751 68.854C107.446 68.8571 109.09 68.2765 110.407 67.21V69.457C108.867 70.4922 107.033 71.0016 105.18 70.909C104.242 70.9607 103.303 70.8018 102.435 70.4439C101.566 70.0861 100.788 69.5384 100.158 68.841C98.8721 67.2109 98.2294 65.1655 98.3518 63.093C98.3333 61.684 98.6413 60.2899 99.2518 59.02C99.7984 57.855 100.66 56.8661 101.739 56.165C102.789 55.4918 104.013 55.1394 105.261 55.151C106.115 55.1048 106.968 55.2517 107.757 55.5806C108.546 55.9096 109.251 56.4121 109.82 57.051C110.994 58.567 111.576 60.4584 111.457 62.372V63.635L111.462 63.629ZM108.999 61.592C109.052 60.4281 108.696 59.2823 107.992 58.354C107.651 57.9659 107.226 57.6605 106.749 57.461C106.272 57.2614 105.757 57.1728 105.241 57.202C104.707 57.1942 104.177 57.2967 103.685 57.5032C103.192 57.7097 102.748 58.0157 102.379 58.402C101.55 59.2754 101.024 60.3925 100.879 61.588H108.999V61.592ZM129.782 64.587C129.812 65.4564 129.644 66.3212 129.291 67.1161C128.937 67.911 128.408 68.615 127.742 69.175C126.227 70.387 124.322 71.0053 122.384 70.914C120.712 70.998 119.05 70.601 117.597 69.77V67.185C118.98 68.2872 120.701 68.8781 122.47 68.858C123.74 68.9246 124.992 68.5368 126.002 67.764C126.434 67.4056 126.778 66.9522 127.006 66.4391C127.234 65.9259 127.34 65.367 127.317 64.806C127.317 62.0573 125.359 60.6826 121.445 60.682H119.699V58.641H121.357C124.823 58.641 126.557 57.349 126.557 54.765C126.557 52.377 125.235 51.1833 122.593 51.184C121.069 51.1973 119.595 51.726 118.41 52.684V50.346C119.865 49.5153 121.52 49.1002 123.195 49.146C124.725 49.0734 126.228 49.5676 127.416 50.534C127.94 50.9795 128.356 51.5375 128.634 52.1664C128.912 52.7952 129.045 53.4788 129.022 54.166C129.022 56.9366 127.622 58.7183 124.822 59.511V59.569C126.173 59.6721 127.446 60.2432 128.422 61.184C128.87 61.6285 129.222 62.16 129.457 62.7458C129.691 63.3315 129.804 63.9592 129.787 64.59M145.626 63.871C145.643 65.1316 145.348 66.3768 144.768 67.496C144.232 68.5448 143.409 69.4203 142.396 70.021C141.369 70.6252 140.197 70.9365 139.006 70.921C138.032 70.9524 137.067 70.7358 136.2 70.2917C135.334 69.8476 134.594 69.1904 134.051 68.382C132.734 66.2599 132.106 63.783 132.251 61.29C132.211 59.1169 132.572 56.9551 133.316 54.913C133.9 53.2358 134.943 51.7558 136.326 50.641C137.615 49.6455 139.204 49.1167 140.833 49.141C142.029 49.093 143.221 49.2975 144.333 49.741V52.022C143.272 51.4701 142.093 51.1829 140.897 51.185C139.998 51.1759 139.113 51.4018 138.329 51.8403C137.545 52.2789 136.889 52.9148 136.427 53.685C135.215 55.6918 134.629 58.0145 134.745 60.356H134.804C135.206 59.4298 135.88 58.6482 136.738 58.1155C137.596 57.5829 138.595 57.3245 139.604 57.375C140.419 57.3399 141.231 57.4811 141.986 57.789C142.741 58.0969 143.421 58.5642 143.979 59.159C145.114 60.454 145.703 62.1386 145.623 63.859M143.157 64.167C143.226 62.9151 142.843 61.6801 142.078 60.687C141.705 60.2593 141.239 59.9222 140.716 59.7012C140.194 59.4803 139.628 59.3814 139.061 59.412C138.507 59.4004 137.958 59.5048 137.447 59.7183C136.936 59.9319 136.475 60.2499 136.095 60.652C135.704 61.0463 135.397 61.515 135.191 62.0303C134.984 62.5456 134.884 63.0971 134.895 63.652C134.849 64.9896 135.274 66.3009 136.095 67.358C136.444 67.8056 136.887 68.171 137.393 68.4283C137.899 68.6855 138.456 68.8283 139.023 68.8465C139.59 68.8647 140.155 68.7579 140.676 68.5337C141.198 68.3095 141.664 67.9733 142.041 67.549C142.818 66.5977 143.218 65.3933 143.163 64.166M159.796 64.107C159.834 65.0274 159.671 65.945 159.321 66.7967C158.97 67.6485 158.439 68.4141 157.764 69.041C156.261 70.3354 154.318 71.0021 152.338 70.903C150.832 71.0035 149.328 70.7 147.979 70.024V67.478C149.275 68.358 150.8 68.8382 152.367 68.859C153.683 68.9212 154.972 68.4739 155.967 67.61C156.423 67.1847 156.782 66.6653 157.018 66.0878C157.254 65.5102 157.362 64.8883 157.334 64.265C157.364 63.6581 157.255 63.0523 157.016 62.4937C156.777 61.9351 156.414 61.4382 155.954 61.041C154.798 60.1899 153.378 59.7767 151.947 59.875C150.755 59.8639 149.564 59.922 148.379 60.049L149.098 49.495H158.832V51.667H151.169L150.744 57.847L152.682 57.772C154.56 57.6675 156.412 58.2588 157.882 59.433C158.529 60.0222 159.035 60.7484 159.366 61.5587C159.696 62.3689 159.841 63.2426 159.79 64.116M29.4918 74.632V45.457L19.0358 42.441L0.245822 49.496L0.198822 49.506V70.6L6.61082 68.09V50.928L19.0338 47.958V73.192L0.211822 70.6L19.0348 77.551V77.559L29.4888 74.665V74.632H29.4918Z" fill="#E63E3A"/>
<path d="M60.1398 59.7708C60.1849 61.8264 59.7612 63.8653 58.9008 65.7328C58.1333 67.3736 56.8915 68.7467 55.3358 69.6748C53.7111 70.6155 51.8599 71.0935 49.9828 71.0568C48.1597 71.0886 46.3622 70.624 44.7828 69.7128C43.2589 68.8134 42.0328 67.4861 41.2568 65.8958C40.4037 64.1541 39.9759 62.2349 40.0088 60.2958C39.9661 58.2449 40.3984 56.2119 41.2718 54.3558C42.0544 52.7069 43.3169 51.3329 44.8938 50.4138C46.559 49.4742 48.4463 48.9996 50.3578 49.0398C52.1456 49.0124 53.9062 49.4799 55.4448 50.3908C56.9463 51.2943 58.1532 52.6145 58.9188 54.1908C59.7594 55.93 60.179 57.8425 60.1438 59.7738M57.5308 60.1008C57.6708 57.7758 56.9817 55.4764 55.5858 53.6118C54.9211 52.8342 54.0868 52.2197 53.1471 51.8156C52.2074 51.4114 51.1874 51.2285 50.1658 51.2808C48.7817 51.2608 47.4217 51.6452 46.2528 52.3868C45.0747 53.1531 44.1436 54.244 43.5718 55.5278C42.9241 56.9536 42.5997 58.5049 42.6218 60.0708C42.5937 61.6364 42.9055 63.1894 43.5358 64.6228C44.0837 65.8834 44.9872 66.9569 46.1358 67.7118C47.6078 68.5996 49.3374 68.9616 51.0418 68.7387C52.7463 68.5158 54.3247 67.7212 55.5188 66.4848C56.9428 64.6713 57.6542 62.3996 57.5188 60.0978M70.8378 50.3128C70.3421 50.04 69.7835 49.9021 69.2178 49.9128C67.5152 49.9128 66.6638 50.9875 66.6638 53.1368V55.4818H70.2278V57.5448H66.6638V70.6848H64.2278V57.5428H61.6438V55.4798H64.2278V53.0148C64.1973 52.3318 64.3023 51.6495 64.5367 51.0072C64.7712 50.365 65.1305 49.7755 65.5938 49.2728C66.0405 48.8042 66.5809 48.435 67.1798 48.1893C67.7788 47.9435 68.4228 47.8269 69.0698 47.8468C69.6705 47.8238 70.2702 47.9151 70.8368 48.1158V50.3158L70.8378 50.3128Z" fill="#E63E3A"/>
</svg>
