<svg width="160" height="120" viewBox="0 0 160 120" fill="none" xmlns="http://www.w3.org/2000/svg">
<path d="M19.7885 65.5878C19.6885 65.8628 19.8245 65.9208 19.8565 65.9688C21.514 67.1604 23.5158 67.7767 25.5565 67.7238C28.8385 67.7238 30.8755 65.8908 30.8755 62.9378V62.8808C30.8755 60.1518 28.5755 59.1598 26.4175 58.4448L26.1375 58.3448C24.5105 57.7898 23.1065 57.3108 23.1065 56.1858V56.1258C23.1065 55.1628 23.9265 54.4548 25.1985 54.4548C26.6582 54.4888 28.0884 54.8733 29.3685 55.5758C29.3685 55.5758 29.6855 55.7918 29.8015 55.4678C29.8655 55.2958 30.4125 53.7488 30.4695 53.5808C30.4925 53.5076 30.4892 53.4287 30.4599 53.3578C30.4307 53.2868 30.3774 53.2284 30.3095 53.1928C28.8956 52.3246 27.2686 51.8655 25.6095 51.8668H25.2815C22.2815 51.8668 20.1815 53.7728 20.1815 56.5048V56.5618C20.1815 59.4418 22.4945 60.3758 24.6625 61.0268L25.0115 61.1388C26.5905 61.6488 27.9515 62.0868 27.9515 63.2558V63.3138C27.9515 64.3818 27.0675 65.1758 25.6405 65.1758C24.1346 65.1855 22.6609 64.7401 21.4125 63.8978C21.1825 63.7568 21.0475 63.6538 20.8705 63.5408C20.836 63.508 20.7931 63.4854 20.7465 63.4756C20.6999 63.4658 20.6514 63.4691 20.6067 63.4854C20.5619 63.5016 20.5225 63.5299 20.493 63.5673C20.4634 63.6046 20.4449 63.6495 20.4395 63.6968L19.7885 65.5878ZM67.8315 65.5878C67.7315 65.8628 67.8675 65.9208 67.8995 65.9688C69.5569 67.1604 71.5588 67.7767 73.5995 67.7238C76.8815 67.7238 78.9185 65.8908 78.9185 62.9378V62.8808C78.9185 60.1518 76.6185 59.1598 74.4605 58.4448L74.1805 58.3448C72.5535 57.7898 71.1495 57.3108 71.1495 56.1858V56.1258C71.1495 55.1628 71.9695 54.4548 73.2415 54.4548C74.7016 54.4887 76.1321 54.8732 77.4125 55.5758C77.4125 55.5758 77.7295 55.7918 77.8455 55.4678C77.9095 55.2958 78.4565 53.7488 78.5135 53.5808C78.5366 53.5076 78.5332 53.4287 78.5039 53.3578C78.4747 53.2868 78.4214 53.2284 78.3535 53.1928C76.9396 52.3246 75.3126 51.8655 73.6535 51.8668H73.3255C70.3255 51.8668 68.2255 53.7728 68.2255 56.5048V56.5618C68.2255 59.4418 70.5385 60.3758 72.7065 61.0268L73.0555 61.1388C74.6345 61.6488 75.9975 62.0868 75.9975 63.2558V63.3138C75.9975 64.3818 75.1115 65.1758 73.6845 65.1758C72.1789 65.1853 70.7056 64.7399 69.4575 63.8978C69.2275 63.7568 69.0905 63.6578 68.9175 63.5408C68.881 63.5134 68.8382 63.4954 68.7931 63.4886C68.7479 63.4817 68.7018 63.4863 68.6588 63.5017C68.6158 63.5172 68.5774 63.5432 68.5469 63.5772C68.5165 63.6113 68.495 63.6524 68.4845 63.6968L67.8315 65.5878ZM100.631 59.8058C100.705 61.1661 100.4 62.5201 99.7515 63.7178C99.4736 64.1668 99.0785 64.5314 98.6087 64.7723C98.1389 65.0132 97.6122 65.1212 97.0855 65.0848C96.56 65.123 96.0342 65.0156 95.5659 64.7744C95.0975 64.5333 94.7046 64.1677 94.4305 63.7178C93.8602 62.495 93.5648 61.1621 93.5648 59.8128C93.5648 58.4635 93.8602 57.1307 94.4305 55.9078C94.7075 55.4615 95.1013 55.0996 95.5693 54.8611C96.0373 54.6226 96.5616 54.5167 97.0855 54.5548C97.6111 54.5181 98.1369 54.6245 98.6068 54.8627C99.0768 55.1009 99.4734 55.4621 99.7545 55.9078C100.403 57.1014 100.706 58.4517 100.631 59.8078M103.37 56.7148C103.126 55.8066 102.702 54.9566 102.123 54.2148C101.558 53.5044 100.84 52.93 100.023 52.5338C99.0981 52.1264 98.0981 51.916 97.087 51.916C96.0759 51.916 95.0759 52.1264 94.1505 52.5338C93.3318 52.93 92.6122 53.5044 92.0445 54.2148C91.4688 54.9583 91.0451 55.8077 90.7975 56.7148C90.2626 58.7421 90.2626 60.8735 90.7975 62.9008C91.0437 63.8088 91.4683 64.6586 92.0465 65.4008C92.6097 66.1096 93.3281 66.6796 94.1465 67.0668C95.0743 67.465 96.0733 67.6703 97.083 67.6703C98.0926 67.6703 99.0917 67.465 100.019 67.0668C100.838 66.6794 101.556 66.1095 102.119 65.4008C102.698 64.659 103.122 63.809 103.366 62.9008C103.904 60.8739 103.904 58.7417 103.366 56.7148M125.866 64.6418C125.858 64.6056 125.841 64.5718 125.818 64.5426C125.795 64.5134 125.766 64.4897 125.733 64.473C125.699 64.4564 125.663 64.4472 125.626 64.4461C125.589 64.445 125.552 64.4521 125.517 64.4668C125.108 64.641 124.681 64.7695 124.243 64.8498C123.747 64.9274 123.246 64.9652 122.743 64.9628C122.163 64.9932 121.584 64.8988 121.043 64.6861C120.503 64.4734 120.014 64.1473 119.61 63.7298C118.741 62.6112 118.322 61.208 118.434 59.7958C118.373 58.4528 118.741 57.1252 119.485 56.0058C119.835 55.5368 120.296 55.1625 120.827 54.9171C121.358 54.6717 121.942 54.563 122.525 54.6008C123.508 54.5815 124.486 54.7289 125.419 55.0368C125.419 55.0368 125.636 55.1368 125.738 54.8368C125.977 54.1368 126.155 53.6368 126.41 52.8688C126.423 52.8356 126.428 52.8002 126.426 52.7649C126.424 52.7296 126.415 52.6951 126.399 52.6634C126.383 52.6318 126.361 52.6037 126.334 52.5809C126.307 52.5581 126.275 52.5411 126.241 52.5308C125.648 52.314 125.036 52.1523 124.413 52.0478C123.733 51.945 123.046 51.8962 122.357 51.9018C121.306 51.8803 120.264 52.0913 119.303 52.5198C118.453 52.9095 117.7 53.4826 117.097 54.1978C116.493 54.9352 116.04 55.7848 115.764 56.6978C115.46 57.7027 115.309 58.7479 115.317 59.7978C115.212 61.8652 115.859 63.9008 117.14 65.5268C117.826 66.2634 118.667 66.8377 119.603 67.2076C120.538 67.5775 121.545 67.7337 122.548 67.6648C123.875 67.6654 125.191 67.4186 126.427 66.9368C126.486 66.9042 126.529 66.851 126.55 66.7876C126.571 66.7243 126.567 66.6555 126.539 66.5948L125.866 64.6418ZM130.659 58.2098C130.746 57.3993 131.002 56.6158 131.409 55.9098C131.681 55.4557 132.072 55.0842 132.539 54.8352C133.006 54.5863 133.532 54.4693 134.06 54.4968C134.582 54.4709 135.1 54.589 135.559 54.8382C136.018 55.0875 136.399 55.4582 136.66 55.9098C137.048 56.6157 137.259 57.4047 137.276 58.2098H130.659ZM139.882 56.1728C139.652 55.338 139.247 54.5613 138.695 53.8938C138.213 53.3071 137.614 52.8269 136.936 52.4838C136.1 52.1103 135.194 51.9178 134.278 51.9188C133.224 51.8916 132.177 52.1054 131.217 52.5438C130.386 52.9463 129.656 53.5311 129.082 54.2548C128.5 55.0056 128.073 55.865 127.826 56.7828C127.548 57.7959 127.411 58.8424 127.418 59.8928C127.409 60.9444 127.551 61.9919 127.84 63.0028C128.103 63.916 128.562 64.7607 129.185 65.4778C129.823 66.1954 130.622 66.7516 131.516 67.1008C132.591 67.5062 133.734 67.7004 134.882 67.6728C136.497 67.7594 138.107 67.4237 139.552 66.6988C139.652 66.6388 139.752 66.5338 139.629 66.2318L139.023 64.4478C139.013 64.4128 138.996 64.3803 138.972 64.3525C138.948 64.3247 138.919 64.3022 138.886 64.2863C138.853 64.2705 138.818 64.2617 138.781 64.2606C138.745 64.2595 138.708 64.266 138.674 64.2798C137.477 64.8061 136.175 65.0517 134.868 64.9978C134.29 65.0322 133.71 64.9484 133.165 64.7516C132.619 64.5547 132.12 64.2489 131.696 63.8528C130.947 62.9436 130.562 61.788 130.616 60.6108L139.889 60.6208C139.958 60.6191 140.023 60.5922 140.073 60.5453C140.122 60.4984 140.153 60.4349 140.158 60.3668C140.339 58.9621 140.245 57.5358 139.882 56.1668M56.3925 58.2018C56.4805 57.3915 56.7359 56.6083 57.1425 55.9018C57.4141 55.4478 57.8044 55.0763 58.2713 54.8274C58.7382 54.5784 59.2641 54.4614 59.7925 54.4888C60.3137 54.4635 60.8319 54.582 61.2904 54.8311C61.7489 55.0803 62.1301 55.4507 62.3925 55.9018C62.7779 56.6084 62.9881 57.3971 63.0055 58.2018H56.3925ZM65.6135 56.1648C65.3834 55.3302 64.9796 54.5535 64.4285 53.8858C63.9461 53.2991 63.3471 52.8189 62.6695 52.4758C61.8335 52.1025 60.928 51.9099 60.0125 51.9108C58.9579 51.8838 57.9111 52.0976 56.9515 52.5358C56.1201 52.9382 55.3903 53.5231 54.8165 54.2468C54.2339 54.9976 53.8069 55.857 53.5605 56.7748C53.2836 57.7881 53.1463 58.8344 53.1525 59.8848C53.1425 60.9364 53.2846 61.9839 53.5745 62.9948C53.837 63.908 54.2961 64.7527 54.9195 65.4698C55.5574 66.1873 56.3562 66.7435 57.2505 67.0928C58.3253 67.4981 59.4681 67.6923 60.6165 67.6648C62.2313 67.7514 63.8408 67.4157 65.2865 66.6908C65.3865 66.6308 65.4865 66.5258 65.3645 66.2238L64.7645 64.4398C64.7538 64.4048 64.736 64.3724 64.7121 64.3447C64.6883 64.3169 64.6589 64.2944 64.6259 64.2786C64.5929 64.2628 64.557 64.2541 64.5204 64.2529C64.4838 64.2517 64.4474 64.2582 64.4135 64.2718C63.2155 64.7985 61.9129 65.0441 60.6055 64.9898C60.027 65.024 59.4477 64.9402 58.9027 64.7433C58.3577 64.5465 57.8585 64.2408 57.4355 63.8448C56.6857 62.9356 56.3007 61.7801 56.3555 60.6028L65.6285 60.6128C65.6967 60.6111 65.7619 60.5842 65.8116 60.5373C65.8612 60.4904 65.8918 60.4269 65.8975 60.3588C66.0768 58.954 65.9821 57.5276 65.6185 56.1588M36.3545 64.5748C36.1382 64.4212 35.9558 64.2248 35.8185 63.9978C35.6145 63.6079 35.5191 63.1703 35.5425 62.7308C35.5136 62.3724 35.574 62.0125 35.7184 61.6832C35.8627 61.3539 36.0864 61.0655 36.3695 60.8438C37.1541 60.2983 38.1074 60.0501 39.0585 60.1438C39.9013 60.1602 40.7421 60.2354 41.5745 60.3688V64.8018C40.7503 64.9764 39.9149 65.093 39.0745 65.1508C38.1292 65.2906 37.165 65.0885 36.3555 64.5808M40.0455 57.7358C39.6695 57.7068 39.1815 57.6898 38.5985 57.6898C37.8269 57.6873 37.0586 57.7913 36.3155 57.9988C35.6168 58.1901 34.96 58.5099 34.3785 58.9418C33.8138 59.3676 33.3541 59.917 33.0345 60.5478C32.6933 61.2465 32.5236 62.0165 32.5395 62.7938C32.5193 63.557 32.6639 64.3156 32.9635 65.0178C33.2343 65.6179 33.6501 66.1413 34.1735 66.5408C34.7353 66.9578 35.3791 67.2509 36.0625 67.4008C36.8674 67.584 37.691 67.6722 38.5165 67.6638C39.4609 67.6649 40.4036 67.5823 41.3335 67.4168C42.2425 67.2538 43.3595 67.0168 43.6695 66.9428C43.8868 66.8881 44.1035 66.8298 44.3195 66.7678C44.3855 66.7464 44.4423 66.7034 44.4808 66.6457C44.5192 66.588 44.5371 66.519 44.5315 66.4498V57.5408C44.5994 56.7609 44.5034 55.9754 44.2495 55.2348C43.9956 54.4943 43.5896 53.815 43.0575 53.2408C41.8536 52.2689 40.3257 51.7903 38.7825 51.9018C37.9491 51.9113 37.118 51.9922 36.2985 52.1438C35.2874 52.3378 34.319 52.7103 33.4385 53.2438C33.3821 53.2891 33.3431 53.3525 33.3282 53.4232C33.3132 53.4939 33.3232 53.5676 33.3565 53.6318L34.0125 55.4848C34.0206 55.5157 34.035 55.5445 34.0549 55.5694C34.0747 55.5944 34.0995 55.6149 34.1277 55.6298C34.1559 55.6447 34.1869 55.6535 34.2187 55.6557C34.2505 55.658 34.2825 55.6536 34.3125 55.6428C34.3653 55.6202 34.4164 55.5938 34.4655 55.5638C35.717 54.9238 37.1008 54.5852 38.5065 54.5748C39.32 54.5188 40.1284 54.7405 40.7995 55.2038C41.3055 55.6108 41.5625 56.2258 41.5625 57.5238V57.9358C40.7625 57.8158 40.0335 57.7468 40.0335 57.7468M114.825 52.7268C114.839 52.6947 114.847 52.6602 114.847 52.6252C114.848 52.5902 114.841 52.5555 114.829 52.523C114.816 52.4905 114.796 52.4608 114.772 52.4358C114.748 52.4107 114.719 52.3907 114.686 52.3768C114.179 52.2306 113.659 52.1368 113.132 52.0968C112.314 52.005 111.486 52.1436 110.741 52.4968C110.13 52.7716 109.593 53.1877 109.173 53.7108V52.5258C109.177 52.4884 109.172 52.4507 109.16 52.4151C109.148 52.3794 109.129 52.3466 109.104 52.3185C109.079 52.2905 109.049 52.2678 109.015 52.2518C108.981 52.2359 108.944 52.2271 108.906 52.2258H106.529C106.492 52.2272 106.455 52.2361 106.421 52.2521C106.387 52.2681 106.357 52.2908 106.332 52.3189C106.307 52.3469 106.288 52.3797 106.277 52.4153C106.265 52.4509 106.26 52.4885 106.263 52.5258V67.0558C106.261 67.1331 106.29 67.2081 106.343 67.2643C106.396 67.3206 106.469 67.3535 106.546 67.3558H108.982C109.021 67.3545 109.058 67.3457 109.093 67.33C109.127 67.3142 109.159 67.2917 109.185 67.2639C109.211 67.236 109.231 67.2033 109.244 67.1676C109.258 67.1319 109.264 67.0939 109.262 67.0558V59.7968C109.241 58.9341 109.344 58.0727 109.57 57.2398C109.73 56.7071 110.007 56.2171 110.381 55.8058C110.699 55.4753 111.092 55.2271 111.527 55.0828C111.931 54.9604 112.35 54.8983 112.771 54.8988C113.115 54.9073 113.456 54.9512 113.79 55.0298C113.967 55.0518 114.068 54.9368 114.127 54.7668C114.287 54.3218 114.738 52.9878 114.827 52.7218" fill="#E63E3A"/>
<path d="M93.1465 45.9957C92.8303 45.9001 92.5088 45.8233 92.1835 45.7657C91.7459 45.6939 91.3029 45.6605 90.8595 45.6657C90.1077 45.621 89.3546 45.7291 88.6457 45.9832C87.9368 46.2374 87.2867 46.6325 86.7345 47.1447C85.6441 48.3825 84.9603 49.9255 84.7755 51.5647L84.6555 52.2227H82.4435C82.3643 52.2227 82.2878 52.2513 82.228 52.3033C82.1683 52.3554 82.1294 52.4272 82.1185 52.5057L81.7565 54.5337C81.7305 54.7257 81.8145 54.8467 82.0725 54.8467H84.2245L82.0405 67.0377C81.9119 67.8523 81.7165 68.655 81.4565 69.4377C81.3044 69.933 81.0749 70.4011 80.7765 70.8247C80.5599 71.1424 80.2479 71.383 79.8855 71.5117C79.5148 71.6278 79.1279 71.6835 78.7395 71.6767C78.4774 71.6718 78.2164 71.643 77.9595 71.5907C77.7777 71.5553 77.6007 71.4982 77.4325 71.4207C77.3992 71.4074 77.3636 71.4009 77.3277 71.4015C77.2918 71.4022 77.2564 71.41 77.2236 71.4245C77.1908 71.4391 77.1613 71.46 77.1367 71.4862C77.1121 71.5123 77.093 71.5431 77.0805 71.5767C77.0015 71.7847 76.4265 73.3627 76.3575 73.5567C76.3416 73.5922 76.3329 73.6305 76.3318 73.6694C76.3308 73.7083 76.3375 73.747 76.3516 73.7832C76.3656 73.8195 76.3867 73.8526 76.4136 73.8807C76.4406 73.9088 76.4728 73.9312 76.5085 73.9467C76.8002 74.051 77.0977 74.1381 77.3995 74.2077C77.868 74.3103 78.3472 74.3553 78.8265 74.3417C79.6391 74.3548 80.4481 74.2294 81.2185 73.9707C81.9126 73.7068 82.5309 73.2757 83.0185 72.7157C83.5797 72.0793 84.0093 71.338 84.2825 70.5347C84.6674 69.4731 84.9542 68.3786 85.1395 67.2647L87.3395 54.8457H90.5475C90.6272 54.8459 90.7042 54.8171 90.7642 54.7646C90.8242 54.7122 90.8631 54.6397 90.8735 54.5607L91.2375 52.5347C91.2615 52.3407 91.1795 52.2207 90.9195 52.2207H87.8045C87.9146 51.4743 88.0868 50.7384 88.3195 50.0207C88.4686 49.6287 88.7017 49.274 89.0025 48.9817C89.2306 48.7498 89.5106 48.5757 89.8195 48.4737C90.1583 48.37 90.5113 48.32 90.8655 48.3257C91.1341 48.3258 91.4021 48.3522 91.6655 48.4047C91.9655 48.4697 92.0845 48.5047 92.1655 48.5267C92.4835 48.6267 92.5265 48.5267 92.5895 48.3757L93.3345 46.3307C93.3466 46.2966 93.3515 46.2604 93.3489 46.2243C93.3463 46.1882 93.3362 46.1531 93.3193 46.1211C93.3023 46.0891 93.279 46.061 93.2506 46.0386C93.2222 46.0161 93.1895 45.9998 93.1545 45.9907M49.6345 67.0597C49.6363 67.0976 49.6303 67.1355 49.6171 67.1711C49.6038 67.2067 49.5835 67.2393 49.5574 67.2668C49.5312 67.2944 49.4997 67.3164 49.4649 67.3315C49.43 67.3466 49.3925 67.3545 49.3545 67.3547H46.7625C46.7246 67.3543 46.6873 67.3463 46.6526 67.3312C46.6179 67.316 46.5866 67.294 46.5607 67.2664C46.5347 67.2389 46.5146 67.2064 46.5015 67.1708C46.4884 67.1353 46.4826 67.0975 46.4845 67.0597V46.2737C46.4826 46.2359 46.4884 46.1981 46.5015 46.1626C46.5146 46.127 46.5347 46.0945 46.5607 46.067C46.5866 46.0394 46.6179 46.0174 46.6526 46.0022C46.6873 45.9871 46.7246 45.979 46.7625 45.9787H49.3455C49.3835 45.9789 49.421 45.9868 49.4559 46.0019C49.4907 46.017 49.5222 46.039 49.5484 46.0666C49.5745 46.0941 49.5948 46.1267 49.6081 46.1623C49.6213 46.1978 49.6273 46.2357 49.6255 46.2737L49.6345 67.0597Z" fill="#E63E3A"/>
</svg>
