<svg width="120" height="120" viewBox="0 0 120 120" fill="none" xmlns="http://www.w3.org/2000/svg">
<path d="M14.6335 37.5449V82.4309H60.4855L105.366 37.5499H14.6335V37.5449Z" fill="#E63E3A"/>
<path fill-rule="evenodd" clip-rule="evenodd" d="M68.8715 59.0206H66.9095V51.8206H68.8715C71.4905 51.8206 73.5715 52.6866 73.5715 55.3756C73.5715 58.1526 71.4865 59.0226 68.8715 59.0226M47.7545 64.1696C46.7804 64.1728 45.8137 64.0007 44.9005 63.6616L47.7265 54.7156H47.7865L50.5535 63.6856C49.655 64.0069 48.7087 64.1706 47.7545 64.1696ZM68.3465 45.9696H59.4445V67.2316L51.6585 45.9676H43.9445L37.2945 63.7456C36.5945 59.2646 31.9675 57.7136 28.3315 56.5566C25.9315 55.7826 23.3845 54.6446 23.4075 53.3846C23.4275 52.3546 24.7775 51.3996 27.4405 51.5416C29.7226 51.6046 31.9573 52.2085 33.9605 53.3036L37.0605 47.8916C33.912 46.3656 30.4679 45.5465 26.9695 45.4916H26.9445C25.3161 45.4162 23.6891 45.6668 22.1589 46.2287C20.6287 46.7905 19.2261 47.6524 18.0335 48.7636C16.6783 50.1645 15.9148 52.0336 15.9015 53.9826C15.8253 55.199 16.0673 56.4142 16.6037 57.5086C17.1401 58.603 17.9524 59.5387 18.9605 60.2236C20.8182 61.4687 22.863 62.4089 25.0175 63.0086C27.4925 63.7746 29.5175 64.4436 29.4895 65.8696C29.475 66.3902 29.2655 66.8863 28.9025 67.2596C28.5077 67.5937 28.0506 67.8461 27.5576 68.0023C27.0647 68.1585 26.5456 68.2154 26.0305 68.1696C23.4084 68.2701 20.8229 67.5297 18.6515 66.0566L15.9005 71.5426C18.9735 73.2954 22.4478 74.2232 25.9855 74.2356H26.4505C29.2259 74.2727 31.9307 73.361 34.1175 71.6516L34.4445 71.3656L33.5535 73.7656H41.6445L43.0035 69.6176C46.0564 70.6088 49.3425 70.6224 52.4035 69.6566L53.7105 73.7656H66.9105V65.1786H69.7905C76.7465 65.1786 80.8665 61.6246 80.8665 55.6596C80.8665 49.0206 76.8665 45.9756 68.3485 45.9756" fill="white"/>
<path d="M72.7165 77.8561V81.1961H73.2165V79.7461H73.7835L74.6975 81.1951H75.2645L74.2875 79.7461C74.408 79.7438 74.5269 79.7173 74.637 79.6682C74.7472 79.6192 74.8463 79.5484 74.9286 79.4603C75.0108 79.3722 75.0746 79.2684 75.1159 79.1551C75.1573 79.0419 75.1755 78.9215 75.1695 78.8011C75.1695 78.1431 74.7695 77.8561 73.9695 77.8561H72.7165ZM73.2165 78.2971H73.9095C74.2505 78.2971 74.6345 78.3521 74.6345 78.7701C74.6345 79.2911 74.2455 79.3371 73.8155 79.3371H73.2155L73.2165 78.2971ZM73.8465 76.6271C73.269 76.6243 72.7037 76.7932 72.2223 77.1123C71.741 77.4314 71.3653 77.8864 71.143 78.4194C70.9207 78.9525 70.8618 79.5395 70.9738 80.1061C71.0858 80.6727 71.3636 81.1932 71.772 81.6015C72.1804 82.0099 72.7009 82.2877 73.2675 82.3997C73.834 82.5117 74.4211 82.4528 74.9541 82.2305C75.4871 82.0082 75.9421 81.6326 76.2612 81.1512C76.5804 80.6699 76.7493 80.1046 76.7465 79.5271C76.7502 79.1455 76.6779 78.7671 76.5337 78.4138C76.3896 78.0605 76.1764 77.7395 75.9068 77.4695C75.6372 77.1996 75.3165 76.986 74.9634 76.8414C74.6104 76.6967 74.232 76.6238 73.8505 76.6271H73.8465ZM73.8465 77.1001C74.3276 77.0937 74.7998 77.2306 75.2029 77.4933C75.606 77.756 75.922 78.1326 76.1105 78.5753C76.299 79.018 76.3517 79.5067 76.2617 79.9794C76.1717 80.4521 75.9433 80.8874 75.6053 81.2299C75.2673 81.5724 74.8351 81.8066 74.3637 81.9028C73.8922 81.9991 73.4028 81.9529 72.9576 81.7703C72.5125 81.5876 72.1317 81.2768 71.8637 80.8771C71.5957 80.4775 71.4525 80.0072 71.4525 79.5261C71.4473 79.2084 71.5056 78.8929 71.6239 78.598C71.7422 78.3032 71.9182 78.0349 72.1415 77.809C72.3649 77.583 72.6311 77.4039 72.9245 77.2822C73.218 77.1605 73.5328 77.0986 73.8505 77.1001H73.8465Z" fill="#E63E3A"/>
</svg>
